<?xml version="1.0" encoding="utf-8"?> <!DOCTYPE svg PUBLIC "-//W3C//DTD SVG 1.1//EN" "http://www.w3.org/Graphics/SVG/1.1/DTD/svg11.dtd"> <svg xmlns='http://www.w3.org/2000/svg' xml:space='preserve' version='1.1' xmlns:xlink='http://www.w3.org/1999/xlink' overflow='visible' viewBox='0 0 210 100'> <path d="M 70 0 L -10 0 C -25 0, -25 20, -10 20 L 50 20 C 65 20, 65 40, 50 40 L 30 40 C 15 40, 15 60, 30 60 L 110 60 C 125 60, 125 80, 110 80 L -10 80 C -25 80, -25 100, -10 100 L 170 100 C 185 100, 185 80, 170 80 L 150 80 C 135 80, 135 60, 150 60 L 170 60 C 185 60, 185 40, 170 40 L 90 40 C 75 40, 75 20, 90 20 L 130 20 C 145 20, 145 0, 130 0 Z" transform="translate(25, 0)" fill="#48c7ff" stroke="none" stroke-width="0" /> </svg>